<?xml version="1.0" standalone="no"?>
<!DOCTYPE svg PUBLIC "-//W3C//DTD SVG 20010904//EN"
 "http://www.w3.org/TR/2001/REC-SVG-20010904/DTD/svg10.dtd">
<svg version="1.0" xmlns="http://www.w3.org/2000/svg"
 width="1120.000000pt" height="1120.000000pt" viewBox="0 0 1120.000000 1120.000000"
 preserveAspectRatio="xMidYMid meet">
<metadata>
Created by potrace 1.11, written by Peter Selinger 2001-2013
</metadata>
<g transform="translate(0.000000,1120.000000) scale(0.100000,-0.100000)"
fill="#000000" stroke="none">
<path d="M5458 11195 c-2 -2 -31 -6 -64 -9 -83 -8 -192 -31 -294 -63 -47 -15
-87 -27 -90 -28 -50 -14 -291 -136 -365 -186 -221 -146 -425 -363 -551 -586
l-46 -83 -1532 -1 c-842 0 -1540 -2 -1551 -4 -11 -2 -36 -7 -55 -10 -79 -15
-197 -81 -265 -150 -75 -74 -135 -186 -154 -285 -15 -79 -15 -9254 0 -9336 14
-78 66 -186 119 -251 54 -66 165 -143 250 -174 l65 -24 4645 -2 c3181 -1 4662
1 4700 8 213 41 398 226 439 439 7 38 9 1519 8 4700 l-2 4645 -24 65 c-30 82
-90 171 -155 233 -56 53 -188 123 -251 132 -22 4 -49 8 -60 10 -11 2 -702 4
-1537 4 l-1516 1 -40 73 c-140 254 -390 505 -652 655 -142 81 -363 167 -479
187 -19 3 -37 8 -41 10 -3 2 -29 7 -56 11 -27 3 -58 8 -69 11 -22 5 -372 13
-377 8z"/>
</g>
</svg>
